<svg xmlns="http://www.w3.org/2000/svg" viewBox="0 0 630 430" class="svg-logo" width="630" height="430"
     style="height: auto;">
    <rect rx="0" ry="0" width="100%" height="100%" fill="rgba(41, 167, 135, 1.0)"></rect>
    <g transform="translate(7.28946838378593 -8.849997711183931) scale(0.9500000000000097)">
        <g>
            <g transform="scale(0.13603425765057778) translate(3299.407329123467 1282.8438125776593)">
                <path id="color_x5F_2" fill="#8DC540"
                      d="M297.635,591.684c-116.089,0-210.525-94.441-210.525-210.53    s94.437-210.531,210.525-210.531c116.09,0,210.535,94.442,210.535,210.531S413.725,591.684,297.635,591.684z M297.635,202.845    c-98.313,0-178.302,79.991-178.302,178.309s79.989,178.309,178.302,178.309c98.324,0,178.313-79.991,178.313-178.309    S395.959,202.845,297.635,202.845z M249.741,40.938C218.747,9.943,175.786-1.724,135.734,5.816    c-7.539,40.052,4.127,83.012,35.121,114.006c28.07,28.069,65.94,40.12,102.589,36.575L186.063,56.145l100.251,87.381    C289.86,106.877,277.81,69.006,249.741,40.938z M400.309,105.239c25.373-25.374,34.924-60.543,28.752-93.332    c-32.789-6.172-67.957,3.378-93.331,28.751c-22.979,22.979-32.844,53.983-29.94,83.985l82.068-71.534l-71.533,82.069    C346.326,138.083,377.329,128.218,400.309,105.239z"></path>
                <path id="color_x5F_1" fill="#FCB715"
                      d="M453.891,381.152c0,86.296-69.955,156.253-156.252,156.253    c-86.295,0-156.253-69.957-156.253-156.253c0-38.43,59.213-62.221,115.752-6.525C330.848,447.237,410.061,428.535,453.891,381.152z     M361.504,406.116c31.357,0,62.381-14.1,85.123-38.677l4.799-5.189c-16.977-40.25-120.621-45.743-186.163-0.583    C295.201,390.711,328.439,406.116,361.504,406.116z"></path>
            </g>
            <text transform="translate(112.0390625 237)" fill="rgba(236, 255, 250, 1.0)" font-family="Gabriela"
                  font-size="64" dx="0 0 0 0 0 0 0 0 0 0 0">NutriTailor
            </text>
            <text transform="translate(112.0390625 289)" fill="rgba(236, 255, 250, 1.0)" font-family="JP Noto Serif"
                  font-size="28.8"
                  dx="0 0 0 0 0 0 0 0 0 0 0 0 0 0 0 0 0 0 0 0 0 0 0 0 0 0 0 0 0 0">Crafting Your Path to Wellness
            </text>
        </g>
    </g>
</svg>
