<svg xmlns="http://www.w3.org/2000/svg" viewBox="0 0 630 430" class="svg-logo" width="630" height="430"
     style="height: auto;">
    <rect rx="0" ry="0" width="100%" height="100%" fill="rgba(41, 167, 135, 1.0)"></rect>
    <g transform="translate(187.91959339439003 128.26256716012207) scale(0.40342989155361075)">
        <g transform="translate(-33.26198630136986 -133.2625613530483) scale(1.1608732876712329)">
            <g>
                <path id="frame_x5F_1_110_" d="M491.519,382.366C530.781,368.687,569.523,340.608,600,300
	c-30.477-40.608-69.219-68.687-108.481-82.366c-3.304-6.401-6.013-13.109-9.628-19.341c39.062,9.268,79.146,31.744,112.889,67.017
	c-3.193-28.457-11.168-56.214-22.019-82.67c-40.996-23.305-84.157-33.458-123.18-32.222c1.238-39.021-8.916-82.184-32.22-123.18
	c-26.456-10.85-54.212-18.824-82.671-22.019c35.273,33.743,57.749,73.829,67.018,112.888c-6.231-3.615-12.941-6.322-19.342-9.625
	C368.687,69.219,340.61,30.477,300-0.001c-40.608,30.478-68.687,69.22-82.366,108.483c-6.399,3.303-13.108,6.011-19.34,9.625
	c9.269-39.059,31.745-79.146,67.016-112.888c-28.456,3.194-56.212,11.169-82.668,22.019
	c-23.304,40.996-33.458,84.159-32.223,123.181c-39.02-1.237-82.184,8.917-123.18,32.221C16.391,209.096,8.417,236.853,5.22,265.31
	c33.743-35.272,73.83-57.749,112.889-67.017c-3.615,6.232-6.321,12.94-9.625,19.341C69.219,231.313,30.477,259.392,0,300
	c30.477,40.608,69.219,68.687,108.481,82.366c3.304,6.401,6.01,13.109,9.625,19.341C79.047,392.439,38.96,369.962,5.218,334.69
	c3.196,28.457,11.171,56.214,22.019,82.671c40.996,23.304,84.16,33.458,123.183,32.221c-1.238,39.021,8.916,82.184,32.22,123.18
	c26.456,10.85,54.212,18.824,82.668,22.019c-35.27-33.742-57.746-73.829-67.016-112.888c6.231,3.615,12.941,6.322,19.34,9.626
	c13.679,39.263,41.759,78.004,82.366,108.483c40.611-30.478,68.687-69.219,82.366-108.483c6.402-3.304,13.111-6.011,19.342-9.626
	c-9.269,39.06-31.745,79.146-67.018,112.888c28.459-3.194,56.215-11.168,82.671-22.019c23.304-40.996,33.458-84.159,32.22-123.181
	c39.023,1.237,82.187-8.917,123.18-32.22c10.851-26.457,18.825-54.213,22.019-82.671c-33.742,35.272-73.827,57.749-112.889,67.017
	C485.506,395.475,488.215,388.767,491.519,382.366z M571.406,376.671l-1.857,7.087l-2.473,6.895l-5.041,13.761
	c-42.482,24.293-87.425,33.697-127.196,30.425c3.271,39.771-6.133,84.713-30.427,127.196l-13.76,5.042l-6.895,2.473l-7.086,1.857
	c27.634-38.423,41.63-80.613,43.203-119.438l-11.192,8.415l-11.951,7.266c-3.857,2.658-8.163,4.476-12.358,6.496
	c-4.249,1.887-8.235,4.412-12.726,5.721c-12.044,35.522-36.35,70.699-71.65,99.285c-35.3-28.587-59.606-63.763-71.647-99.285
	c-4.491-1.309-8.477-3.834-12.725-5.721c-4.195-2.021-8.501-3.838-12.358-6.496l-11.951-7.266l-11.192-8.415
	c1.573,38.826,15.569,81.015,43.203,119.438l-7.086-1.857l-6.895-2.473l-13.76-5.042c-24.294-42.483-33.698-87.424-30.426-127.195
	c-39.773,3.272-84.714-6.133-127.196-30.426l-5.041-13.761l-2.473-6.895l-1.857-7.087c38.422,27.635,80.611,41.631,119.437,43.204
	l-8.414-11.193l-7.266-11.951c-2.658-3.858-4.476-8.163-6.497-12.357c-1.887-4.25-4.413-8.236-5.72-12.726
	C84.609,359.607,49.434,335.3,20.847,300c28.588-35.3,63.762-59.606,99.287-71.649c1.307-4.49,3.833-8.476,5.72-12.726
	c2.021-4.193,3.839-8.499,6.497-12.357l7.266-11.951l8.414-11.193c-38.826,1.573-81.015,15.569-119.437,43.204l1.857-7.087
	l2.473-6.895l5.041-13.761c42.482-24.293,87.422-33.697,127.196-30.425c-3.271-39.771,6.132-84.712,30.426-127.196l13.76-5.041
	l6.895-2.473l7.086-1.857c-27.634,38.423-41.63,80.613-43.203,119.438l11.192-8.415l11.951-7.266
	c3.857-2.658,8.163-4.475,12.358-6.497c4.249-1.887,8.234-4.412,12.725-5.721c12.041-35.522,36.347-70.699,71.647-99.285
	c35.3,28.587,59.606,63.764,71.65,99.285c4.491,1.309,8.477,3.834,12.726,5.721c4.192,2.021,8.501,3.838,12.358,6.497l11.951,7.266
	l11.192,8.415c-1.573-38.826-15.569-81.014-43.203-119.438l7.086,1.857l6.895,2.473l13.76,5.041
	c24.294,42.483,33.698,87.424,30.427,127.195c39.77-3.272,84.713,6.133,127.196,30.426l5.041,13.761l2.473,6.895l1.857,7.087
	c-38.422-27.635-80.611-41.631-119.437-43.204l8.414,11.193l7.266,11.951c2.658,3.857,4.476,8.163,6.497,12.356
	c1.887,4.25,4.41,8.236,5.72,12.726c35.522,12.042,70.699,36.349,99.287,71.649c-28.588,35.3-63.765,59.607-99.287,71.649
	c-1.31,4.49-3.833,8.476-5.72,12.726c-2.021,4.193-3.839,8.499-6.497,12.357l-7.266,11.951l-8.414,11.193
	C490.795,418.302,532.984,404.306,571.406,376.671z M444.964,559.055c23.849-13.294,45.377-30.238,65.009-49.081
	c18.843-19.634,35.788-41.162,49.081-65.012c-31.336,13.748-63.487,20.15-92.939,21.152
	C465.111,495.566,458.712,527.718,444.964,559.055z M478.548,500.828c0.966-6.825,1.731-13.487,2.308-19.971
	c6.485-0.579,13.147-1.344,19.97-2.309c6.814-0.974,13.928-2.033,20.553-3.832c-3.169,4.531-6.985,8.522-10.677,12.617
	l-11.156,12.216l-12.214,11.154c-4.096,3.694-8.085,7.509-12.618,10.676C476.515,514.755,477.573,507.642,478.548,500.828z
	 M326.616,491.651l-6.578,1.064l-6.683,0.296l-13.357,0.734l-13.354-0.734l-6.683-0.296l-6.578-1.064
	c-4.38-0.728-8.8-1.246-13.168-2.028l-12.875-3.354c2.9,6.051,6.13,12.241,9.712,18.535c3.66,5.914,7.726,11.627,12.11,17.572
	c2.195,2.953,4.479,5.922,6.85,8.904c2.398,2.74,4.892,5.418,7.469,8.143c5.155,5.432,10.659,10.894,16.517,16.348
	c5.857-5.455,11.365-10.916,16.52-16.348c2.577-2.725,5.068-5.404,7.469-8.143c2.371-2.982,4.656-5.951,6.85-8.904
	c4.383-5.945,8.447-11.658,12.11-17.572c3.579-6.293,6.811-12.483,9.712-18.535l-12.875,3.354
	C335.415,490.404,330.996,490.923,326.616,491.651z M299.999,534.923c-9.161-9.464-17.378-18.2-24.438-28.007
	c8.079,1.054,16.299,0.921,24.438,1.572c8.142-0.652,16.358-0.518,24.44-1.572C317.379,516.722,309.16,525.459,299.999,534.923z
	 M40.945,444.963c13.294,23.85,30.238,45.377,49.078,65.012c19.635,18.842,41.164,35.787,65.012,49.081
	c-13.748-31.337-20.15-63.489-21.151-92.939C104.433,465.113,72.281,458.711,40.945,444.963z M112.667,510.703l-12.217-11.154
	l-11.153-12.216c-3.696-4.095-7.511-8.086-10.677-12.617c6.623,1.8,13.736,2.858,20.551,3.832c6.826,0.965,13.488,1.73,19.973,2.31
	c0.577,6.484,1.342,13.147,2.308,19.971c0.975,6.814,2.033,13.927,3.833,20.551C120.752,518.212,116.761,514.397,112.667,510.703z
	 M155.036,40.945c-23.848,13.294-45.377,30.238-65.012,49.081c-18.84,19.634-35.785,41.162-49.078,65.012
	c31.335-13.748,63.487-20.149,92.939-21.152C134.886,104.434,141.288,72.282,155.036,40.945z M121.452,99.172
	c-0.966,6.825-1.731,13.487-2.311,19.972c-6.482,0.579-13.144,1.344-19.97,2.309c-6.814,0.974-13.928,2.033-20.551,3.832
	c3.166-4.531,6.982-8.523,10.677-12.618l11.153-12.216l12.217-11.154c4.093-3.694,8.085-7.509,12.618-10.676
	C123.485,85.245,122.427,92.357,121.452,99.172z M107.285,279.963l1.064-6.58c0.727-4.379,1.247-8.8,2.027-13.167l3.355-12.876
	c-6.052,2.9-12.241,6.131-18.535,9.712c-5.914,3.661-11.628,7.727-17.572,12.11c-2.954,2.195-5.923,4.479-8.904,6.851
	c-2.739,2.398-5.418,4.892-8.142,7.468c-5.433,5.155-10.896,10.661-16.349,16.519c5.454,5.858,10.917,11.364,16.349,16.519
	c2.724,2.576,5.403,5.07,8.142,7.468c2.981,2.372,5.95,4.655,8.904,6.851c5.944,4.383,11.658,8.449,17.572,12.11
	c6.294,3.58,12.483,6.812,18.535,9.711l-3.355-12.876c-0.78-4.367-1.301-8.787-2.027-13.167l-1.064-6.58l-0.296-6.681L106.257,300
	l0.733-13.356L107.285,279.963z M93.083,324.439c-9.804-7.06-18.541-15.278-28.005-24.439c9.463-9.162,18.2-17.379,28.005-24.439
	C92.03,283.642,92.162,291.86,91.51,300C92.162,308.14,92.03,316.358,93.083,324.439z M559.055,155.037
	c-13.294-23.85-30.238-45.377-49.081-65.012c-19.633-18.842-41.161-35.787-65.009-49.081c13.748,31.337,20.147,63.489,21.152,92.939
	C495.564,134.887,527.719,141.289,559.055,155.037z M487.333,89.297l12.214,11.154l11.156,12.216
	c3.693,4.095,7.508,8.086,10.677,12.618c-6.626-1.8-13.739-2.858-20.553-3.833c-6.823-0.965-13.485-1.731-19.97-2.31
	c-0.58-6.484-1.342-13.146-2.308-19.971c-0.975-6.815-2.033-13.927-3.833-20.551C479.248,81.788,483.236,85.603,487.333,89.297z
	 M492.715,320.037l-1.065,6.58c-0.727,4.379-1.247,8.8-2.027,13.167l-3.355,12.876c6.052-2.899,12.241-6.131,18.535-9.711
	c5.914-3.661,11.625-7.727,17.572-12.11c2.951-2.195,5.92-4.479,8.904-6.851c2.739-2.398,5.415-4.892,8.142-7.468
	c5.433-5.155,10.893-10.661,16.349-16.519c-5.457-5.858-10.917-11.364-16.349-16.519c-2.727-2.576-5.403-5.07-8.142-7.468
	c-2.984-2.372-5.953-4.655-8.904-6.851c-5.947-4.383-11.658-8.449-17.572-12.11c-6.294-3.58-12.483-6.812-18.535-9.712l3.355,12.876
	c0.78,4.367,1.301,8.787,2.027,13.167l1.065,6.58l0.296,6.681L493.743,300l-0.733,13.356L492.715,320.037z M506.917,275.561
	c9.804,7.06,18.541,15.278,28.005,24.439c-9.463,9.162-18.2,17.379-28.005,24.439c1.053-8.081,0.918-16.299,1.57-24.439
	C507.835,291.86,507.97,283.642,506.917,275.561z M330.838,77.625c-2.195-2.953-4.479-5.923-6.85-8.904
	c-2.401-2.74-4.892-5.418-7.469-8.143c-5.155-5.432-10.662-10.894-16.52-16.348c-5.858,5.455-11.362,10.916-16.517,16.348
	c-2.577,2.725-5.071,5.404-7.469,8.143c-2.371,2.981-4.656,5.951-6.85,8.904c-4.383,5.945-8.45,11.658-12.11,17.572
	c-3.582,6.293-6.811,12.483-9.712,18.534l12.875-3.354c4.368-0.782,8.788-1.3,13.168-2.028l6.578-1.064l6.683-0.296l13.354-0.734
	l13.357,0.734l6.683,0.296l6.578,1.064c4.38,0.728,8.8,1.246,13.168,2.028l12.875,3.354c-2.9-6.051-6.133-12.241-9.712-18.534
	C339.284,89.283,335.221,83.57,330.838,77.625z M299.999,91.511c-8.139,0.652-16.358,0.518-24.438,1.572
	c7.06-9.806,15.276-18.543,24.438-28.007c9.161,9.464,17.381,18.2,24.44,28.007C316.357,92.03,308.14,92.163,299.999,91.511z"
                      fill="rgba(236, 255, 250, 1.0)"></path>
            </g>
        </g>
        <g>
            <g transform="scale(0.13603425765057778) translate(3299.4071047860198 1282.8438406198402)">
                <path id="color_x5F_2" fill="#8DC540"
                      d="M297.635,591.684c-116.089,0-210.525-94.441-210.525-210.53    s94.437-210.531,210.525-210.531c116.09,0,210.535,94.442,210.535,210.531S413.725,591.684,297.635,591.684z M297.635,202.845    c-98.313,0-178.302,79.991-178.302,178.309s79.989,178.309,178.302,178.309c98.324,0,178.313-79.991,178.313-178.309    S395.959,202.845,297.635,202.845z M249.741,40.938C218.747,9.943,175.786-1.724,135.734,5.816    c-7.539,40.052,4.127,83.012,35.121,114.006c28.07,28.069,65.94,40.12,102.589,36.575L186.063,56.145l100.251,87.381    C289.86,106.877,277.81,69.006,249.741,40.938z M400.309,105.239c25.373-25.374,34.924-60.543,28.752-93.332    c-32.789-6.172-67.957,3.378-93.331,28.751c-22.979,22.979-32.844,53.983-29.94,83.985l82.068-71.534l-71.533,82.069    C346.326,138.083,377.329,128.218,400.309,105.239z"></path>
                <path id="color_x5F_1" fill="#FCB715"
                      d="M453.891,381.152c0,86.296-69.955,156.253-156.252,156.253    c-86.295,0-156.253-69.957-156.253-156.253c0-38.43,59.213-62.221,115.752-6.525C330.848,447.237,410.061,428.535,453.891,381.152z     M361.504,406.116c31.357,0,62.381-14.1,85.123-38.677l4.799-5.189c-16.977-40.25-120.621-45.743-186.163-0.583    C295.201,390.711,328.439,406.116,361.504,406.116z"></path>
            </g>
            <text transform="translate(112.0390625 237)" fill="rgba(236, 255, 250, 1.0)" font-family="Gabriela"
                  font-size="64" dx="0 0 0 0 0 0 0 0 0 0 0" style="display: block;">
                NutriTailor
            </text>
            <text transform="translate(112.0390625 289)" fill="rgba(236, 255, 250, 1.0)" font-family="JP Noto Serif"
                  font-size="28.8" dx="0 0 0 0 0 0 0 0 0 0 0 0 0 0 0 0 0 0 0 0 0 0 0 0 0 0 0 0 0 0" style="display: block;">Crafting Your
                Path to Wellness
            </text>
        </g>
    </g>
</svg>
