<svg width="55" height="76" viewBox="0 0 55 76" fill="none" xmlns="http://www.w3.org/2000/svg">
<path d="M27.2067 76C12.2042 76 0 63.7951 0 48.7927C0 33.7902 12.2043 21.5852 27.2067 21.5852C42.2093 21.5852 54.4147 33.7902 54.4147 48.7927C54.4147 63.7951 42.2093 76 27.2067 76ZM27.2067 25.7493C14.5014 25.7493 4.16426 36.0868 4.16426 48.7927C4.16426 61.4985 14.5014 71.836 27.2067 71.836C39.9133 71.836 50.2505 61.4985 50.2505 48.7927C50.2505 36.0868 39.9133 25.7493 27.2067 25.7493ZM21.0172 4.82568C17.0118 0.820115 11.4598 -0.687641 6.2838 0.286772C5.30952 5.46279 6.81715 11.0146 10.8226 15.0201C14.4501 18.6475 19.3442 20.2049 24.0804 19.7467L12.7879 6.79092L25.7436 18.0834C26.2019 13.3471 24.6446 8.45298 21.0172 4.82568ZM40.4755 13.1355C43.7545 9.85631 44.9888 5.31133 44.1912 1.07393C39.9538 0.276305 35.4089 1.51048 32.1298 4.78949C29.1602 7.75913 27.8853 11.7659 28.2606 15.6431L38.8664 6.39857L29.622 17.0046C33.4991 17.38 37.5057 16.1051 40.4755 13.1355Z" fill="#8DC540"/>
<path d="M47.4 48.7923C47.4 59.9445 38.3595 68.9853 27.2071 68.9853C16.055 68.9853 7.01416 59.9445 7.01416 48.7923C7.01416 43.8259 14.6664 40.7513 21.9731 47.949C31.4988 57.3326 41.7357 54.9157 47.4 48.7923ZM35.4606 52.0184C39.5129 52.0184 43.5222 50.1963 46.4612 47.0201L47.0814 46.3495C44.8874 41.1479 31.4933 40.438 23.0231 46.2742C26.8921 50.0276 31.1875 52.0184 35.4606 52.0184Z" fill="#FCB715"/>
</svg>
